# xmcd
#
# Track frame offsets:
#	150
#	3900
#	27103
#	47528
#	73043
#	101712
#	122584
#	149837
#	169945
#	179532
#	203793
#	230023
#	250805
#	268736
#	277477
#	303490
#
# Disc length: 4250 seconds
#
# Revision: 0
# Processed by: cddbd v1.5.1PL0 Copyright (c) Steve Scherf et al.
# Submitted via: EasyCDDAExtractor 8.2.1.1
#
DISCID=f3109810
DTITLE=Soul Sirkus - World Play
DYEAR=2005
DGENRE=
TTITLE0=World Play
TTITLE1=Highest Ground
TTITLE2=New Position
TTITLE3=Another World
TTITLE4=Soul Goes On
TTITLE5=Alive
TTITLE6=Periled Divide
TTITLE7=Peephole
TTITLE8=Abailas To' Mundo
TTITLE9=Friends To Lovers
TTITLE10=Praise
TTITLE11=My Sanctuary
TTITLE12=Coming Home
TTITLE13=My Love, My Friend
TTITLE14=Close The Door
TTITLE15=James Brown
EXTD=
EXTT0=
EXTT1=
EXTT2=
EXTT3=
EXTT4=
EXTT5=
EXTT6=
EXTT7=
EXTT8=
EXTT9=
EXTT10=
EXTT11=
EXTT12=
EXTT13=
EXTT14=
EXTT15=
PLAYORDER=
